<svg xmlns="http://www.w3.org/2000/svg" width="15" height="15" viewBox="0 0 15 15">
  <g id="Icon_ionic-ios-add-circle-outline" data-name="Icon ionic-ios-add-circle-outline" transform="translate(-3.375 -3.375)">
    <path id="Path_9824" data-name="Path 9824" d="M17.615,13.775H14.929V11.089a.577.577,0,1,0-1.154,0v2.686H11.089a.553.553,0,0,0-.577.577.558.558,0,0,0,.577.577h2.686v2.686a.559.559,0,0,0,.577.577.574.574,0,0,0,.577-.577V14.929h2.686a.577.577,0,1,0,0-1.154Z" transform="translate(-3.477 -3.477)" fill="#fff"/>
    <path id="Path_9825" data-name="Path 9825" d="M10.875,4.385a6.488,6.488,0,1,1-4.59,1.9,6.447,6.447,0,0,1,4.59-1.9m0-1.01a7.5,7.5,0,1,0,7.5,7.5,7.5,7.5,0,0,0-7.5-7.5Z" fill="#fff"/>
  </g>
</svg>
