<svg xmlns="http://www.w3.org/2000/svg" width="78" height="78" viewBox="0 0 78 78">
  <g id="Group_56865" data-name="Group 56865" transform="translate(-411 -373)">
    <circle id="Ellipse_482" data-name="Ellipse 482" cx="39" cy="39" r="39" transform="translate(411 373)" fill="#6f109e"/>
    <g id="soccer-field-seen-from-above" transform="translate(427 412) rotate(-45)">
      <path id="Path_275" data-name="Path 275" d="M19.767,18.95l-5.637-5.637a4.024,4.024,0,0,1,5.637,5.637ZM5.918,21.444,3.467,23.895l5.721,5.721,2.451-2.452Zm21.246-9.806,2.451-2.451L23.894,3.468,21.443,5.919Zm-26.147,9.8L2.65,23.078l3.267-3.267,7.354,7.353L10,30.432l1.634,1.632a3.466,3.466,0,0,0,4.9,0l7.352-7.352-4.126-4.128a5.17,5.17,0,0,1-7.27-7.27L8.37,9.189,1.017,16.541A3.464,3.464,0,0,0,1.017,21.443ZM13.68,19.4a4.041,4.041,0,0,0,5.271.366l-5.638-5.637A4.039,4.039,0,0,0,13.68,19.4Zm2.86-18.384L9.189,8.371,13.314,12.5a5.171,5.171,0,0,1,7.272,7.272l4.126,4.126,7.353-7.353a3.466,3.466,0,0,0,0-4.9L30.431,10l-3.267,3.267L19.809,5.919l3.267-3.267L21.443,1.017A3.464,3.464,0,0,0,16.541,1.017Z" fill="#fff"/>
    </g>
  </g>
</svg>
