<svg id="_5402370_bin_delete_remove_trash_can_icon" data-name="5402370_bin_delete_remove_trash_can_icon" xmlns="http://www.w3.org/2000/svg" width="8.961" height="8.961" viewBox="0 0 8.961 8.961">
  <path id="Path_294" data-name="Path 294" d="M11.961,4.494a.5.5,0,0,1-.5.5H3.5a.5.5,0,0,1,0-1H5.987V3.747A.747.747,0,0,1,6.734,3H8.227a.747.747,0,0,1,.747.747V4h2.489A.5.5,0,0,1,11.961,4.494Z" transform="translate(-3 -3)" fill="#6f109e"/>
  <path id="Path_295" data-name="Path 295" d="M5.5,9v4.729a1.245,1.245,0,0,0,1.245,1.245h3.983a1.245,1.245,0,0,0,1.245-1.245V9Zm2.738,3.983a.5.5,0,0,1-1,0V10.991a.5.5,0,0,1,1,0Zm1.991,0a.5.5,0,0,1-1,0V10.991a.5.5,0,0,1,1,0Z" transform="translate(-4.255 -6.013)" fill="#6f109e"/>
</svg>
