<svg xmlns="http://www.w3.org/2000/svg" width="78" height="78" viewBox="0 0 78 78">
  <g id="Group_56863" data-name="Group 56863" transform="translate(-411 -373)">
    <circle id="Ellipse_482" data-name="Ellipse 482" cx="39" cy="39" r="39" transform="translate(411 373)" fill="#6f109e"/>
    <g id="Group_19873" data-name="Group 19873" transform="translate(436.327 398.335)">
      <path id="Path_9712" data-name="Path 9712" d="M16.362,12.957c.03-.317.058-.595.083-.872a.845.845,0,0,1,.837-.809c.056,0,.112,0,.168,0q7.421,0,14.842.008a1.551,1.551,0,0,1,.682.185.668.668,0,0,1,.324.641c0,.269,0,.538,0,.848h4.061a.918.918,0,0,1,.992.989,9.857,9.857,0,0,1-.658,4.216,9.156,9.156,0,0,1-6.751,5.586.753.753,0,0,0-.507.36c-.446.662-.93,1.3-1.413,1.937a.433.433,0,0,1-.307.134q-3.843.011-7.686,0a.457.457,0,0,1-.317-.165c-.489-.657-.956-1.33-1.445-1.988a.616.616,0,0,0-.339-.23,9.02,9.02,0,0,1-7.381-7.43,16.912,16.912,0,0,1-.137-2.589.827.827,0,0,1,.909-.818c1.239,0,2.478,0,3.717,0h.327m6.044,8.759a.725.725,0,0,0,1.006.605c.432-.218.851-.46,1.286-.672a.454.454,0,0,1,.349,0c.419.2.829.422,1.235.649a.615.615,0,0,0,.708-.029.712.712,0,0,0,.33-.72c-.08-.487-.139-.977-.227-1.462a.381.381,0,0,1,.129-.39q.495-.473.968-.967a.964.964,0,0,0,.333-.872c-.087-.327-.436-.429-.763-.475l-.028,0c-.377-.059-.756-.1-1.129-.184a.508.508,0,0,1-.306-.219c-.229-.415-.422-.85-.646-1.267a.789.789,0,0,0-.735-.469.716.716,0,0,0-.676.49c-.192.423-.4.839-.627,1.246a.506.506,0,0,1-.306.219c-.437.09-.882.14-1.32.225a.759.759,0,0,0-.4,1.346c.325.321.653.639.964.972a.434.434,0,0,1,.1.311c-.069.563-.159,1.123-.239,1.666m9.306.046a7.257,7.257,0,0,0,4.922-7.107H33.292a18.38,18.38,0,0,1-1.581,7.107m-18.6-7.108A7.228,7.228,0,0,0,14.743,19.5c.858,1.04,2.558,2.217,3.277,2.234a17.631,17.631,0,0,1-1.654-7.077Z" transform="translate(-10.735 -10.609)" fill="#fff"/>
      <path id="Path_9713" data-name="Path 9713" d="M108.364,320.807h5.786c.715,0,.949.238.949.957,0,.652,0,1.3,0,1.956-.006.667-.3.955-.956.955q-5.772,0-11.543,0c-.668,0-.96-.283-.967-.945q-.01-1.034,0-2.068a.755.755,0,0,1,.863-.856q2.935,0,5.869,0" transform="translate(-94.228 -297.064)" fill="#fff"/>
      <path id="Path_9714" data-name="Path 9714" d="M122.963,232.762h6.543c.042.284.064.562.127.83a6.618,6.618,0,0,0,1.788,2.982c.025.027.051.055.078.08a.519.519,0,0,1,.207.637c-.116.258-.351.264-.594.264q-4.78,0-9.561,0c-.056,0-.122.019-.166,0-.148-.077-.361-.14-.411-.264a.62.62,0,0,1,.082-.5c.363-.517.793-.989,1.137-1.517a4.633,4.633,0,0,0,.771-2.5" transform="translate(-112.109 -215.584)" fill="#fff"/>
    </g>
  </g>
</svg>
