<svg xmlns="http://www.w3.org/2000/svg" width="78" height="78" viewBox="0 0 78 78">
  <g id="Group_56866" data-name="Group 56866" transform="translate(-411 -373)">
    <circle id="Ellipse_482" data-name="Ellipse 482" cx="39" cy="39" r="39" transform="translate(411 373)" fill="#6f109e"/>
    <g id="Group_56694" data-name="Group 56694" transform="translate(-341.173 -203.631)">
      <path id="Path_214" data-name="Path 214" d="M179.051,0c.8.214,1.6.393,2.384.653a6.8,6.8,0,0,1,2.369,1.3,4.093,4.093,0,0,1,1.374,4.085,6.677,6.677,0,0,1-.154.653.943.943,0,0,0,.08.938,1.7,1.7,0,0,1,.083,1.283,3.155,3.155,0,0,1-.5,1.42.7.7,0,0,0-.082.246,7.808,7.808,0,0,1-2.3,4.058,4.063,4.063,0,0,1-5.992.046,7.181,7.181,0,0,1-2.356-4.139.579.579,0,0,0-.076-.217,3.909,3.909,0,0,1-.563-2.26,2.719,2.719,0,0,1,.223-.671.794.794,0,0,0,.026-.378,6.217,6.217,0,0,1-.14-2.809A5.4,5.4,0,0,1,177.888.046,1,1,0,0,0,178.055,0Z" transform="translate(611.895 600.631)" fill="#fff"/>
      <path id="Path_215" data-name="Path 215" d="M65.614,305.914a49.641,49.641,0,0,1-8.219-.6c-1.08-.186-2.136-.514-3.2-.777a.878.878,0,0,1-.7-.743,6.926,6.926,0,0,1-.124-1.3,21.76,21.76,0,0,1,.6-5.068,10.05,10.05,0,0,1,1.425-3.279A4.067,4.067,0,0,1,57.4,292.8c1.035-.4,2.059-.823,3.087-1.24a.909.909,0,0,0,.278-.159.511.511,0,0,1,.821.022.559.559,0,0,1,.163.327c-.006,1.082-.034,2.164-.045,3.247a1.369,1.369,0,0,0,.085.481q1.626,4.365,3.264,8.725a1.778,1.778,0,0,0,.128.294.5.5,0,0,0,.87.011,1.6,1.6,0,0,0,.13-.293q1.641-4.375,3.276-8.752a1.286,1.286,0,0,0,.077-.454c-.012-1.073-.018-2.146-.062-3.217-.015-.363.256-.429.46-.555.081-.05.269.007.374.071a15.334,15.334,0,0,0,3.352,1.43,4.364,4.364,0,0,1,2.819,2.476,14.742,14.742,0,0,1,1.25,4.9c.085,1.018.1,2.043.127,3.065a2.409,2.409,0,0,1-.116.659.966.966,0,0,1-.675.7,21.6,21.6,0,0,1-5.348,1.062c-2.03.175-4.067.262-6.1.388l0-.074" transform="translate(725.559 324.683)" fill="#fff"/>
      <path id="Path_216" data-name="Path 216" d="M258.085,322.539a4.939,4.939,0,0,0,3.04.029l-1.288,1.975c.336.37.643.724.969,1.059a.463.463,0,0,1,.162.453c-.4,2.409-.795,4.821-1.2,7.231a.86.86,0,0,1-.15.256c-.058-.088-.153-.171-.169-.266-.4-2.4-.792-4.8-1.193-7.2a.487.487,0,0,1,.166-.481c.324-.323.621-.674.961-1.049l-1.3-2.005" transform="translate(531.57 294.993)" fill="#fff"/>
    </g>
  </g>
</svg>
