<svg xmlns="http://www.w3.org/2000/svg" width="14.841" height="14.844" viewBox="0 0 14.841 14.844">
  <g id="Icons_Search" data-name="Icons/Search" transform="translate(0)">
    <path id="Path" d="M14.148,14.844a.661.661,0,0,1-.47-.21l-2.289-2.287a6.967,6.967,0,1,1,.954-.954l2.288,2.287a.635.635,0,0,1,.16.716A.721.721,0,0,1,14.148,14.844ZM6.963,1.349a5.618,5.618,0,0,0-3.972,9.59,5.618,5.618,0,1,0,7.945-7.945A5.579,5.579,0,0,0,6.963,1.349Z" transform="translate(0 0)" fill="#5e6c84"/>
  </g>
</svg>
