<svg xmlns="http://www.w3.org/2000/svg" width="78" height="78" viewBox="0 0 78 78">
  <g id="Group_56864" data-name="Group 56864" transform="translate(-411 -373)">
    <circle id="Ellipse_482" data-name="Ellipse 482" cx="39" cy="39" r="39" transform="translate(411 373)" fill="#6f109e"/>
    <g id="Group_19798" data-name="Group 19798" transform="translate(434.951 394.993)">
      <g id="Group_19799" data-name="Group 19799" transform="translate(0.049 3.007)">
        <g id="Group_19796" data-name="Group 19796" transform="translate(0 0)">
          <g id="Group_19800" data-name="Group 19800">
            <g id="Group_19794" data-name="Group 19794">
              <g id="Group_19801" data-name="Group 19801">
                <path id="Path_9699" data-name="Path 9699" d="M31.276,147.061a1.276,1.276,0,0,1-.846.812c-3.494,1.416-6.983,2.843-10.477,4.256a.5.5,0,0,0-.343.423,9.4,9.4,0,0,1-7.709,7.564,9.244,9.244,0,0,1-9.285-3.65,8.883,8.883,0,0,1-1.88-6.817,9.353,9.353,0,0,1,6.124-7.882,9.1,9.1,0,0,1,3.476-.626q4.17-.005,8.339,0a.984.984,0,0,1,1.119,1.117c0,.249,0,.5,0,.772a2.306,2.306,0,0,0,.231.023c.678,0,1.355.008,2.032-.006a.585.585,0,0,0,.359-.149c.454-.433.9-.875,1.333-1.33a1.317,1.317,0,0,1,1.033-.433c1.744.013,3.487.021,5.231,0a1.183,1.183,0,0,1,1.263.726ZM10.23,155.493a4.784,4.784,0,1,0-4.786-4.8,4.793,4.793,0,0,0,4.786,4.8" transform="translate(-0.654 -131.572)" fill="#fff"/>
                <path id="Path_9700" data-name="Path 9700" d="M270.951,17.335c0,.907,0,1.813,0,2.72a.962.962,0,1,1-1.912.014q0-2.764,0-5.529a.962.962,0,1,1,1.912.016c0,.926,0,1.853,0,2.779" transform="translate(-248.939 -13.478)" fill="#fff"/>
                <path id="Path_9701" data-name="Path 9701" d="M183.231,44.732a2.08,2.08,0,0,1-.594-.408c-.975-1.259-1.927-2.537-2.872-3.819a.932.932,0,0,1,.187-1.33.942.942,0,0,1,1.35.205q1.437,1.891,2.85,3.8a.912.912,0,0,1,.081,1.04,1.077,1.077,0,0,1-1,.513" transform="translate(-166.169 -37.068)" fill="#fff"/>
                <path id="Path_9702" data-name="Path 9702" d="M323.9,39.048a.958.958,0,0,1,.889,1.425,6.888,6.888,0,0,1-.471.654q-1.2,1.6-2.4,3.2a.942.942,0,0,1-1.007.428.949.949,0,0,1-.57-1.515q1.42-1.9,2.848-3.8a.938.938,0,0,1,.71-.395" transform="translate(-296.213 -37.133)" fill="#fff"/>
              </g>
            </g>
          </g>
        </g>
      </g>
    </g>
  </g>
</svg>
