<svg xmlns="http://www.w3.org/2000/svg" width="13.014" height="13.014" viewBox="0 0 13.014 13.014">
  <path id="basketball-hoop_1_" data-name="basketball-hoop (1)" d="M9.078,6.507H3.94A1.627,1.627,0,0,0,2.313,8.134c0,.067.4,3.286.4,3.286v1.052a.542.542,0,0,0,1.084,0v-.542H4.88v.542a.542.542,0,0,0,1.084,0v-.542H7.049v.542a.542.542,0,0,0,1.084,0v-.542H9.218v.542a.542.542,0,0,0,1.084,0V11.51c0-.018.4-3.311.4-3.377A1.627,1.627,0,0,0,9.078,6.506Zm.406,1.267a.534.534,0,0,1,.137.358c0,.022-.062.542-.062.542H8.134V7.591h.945a.535.535,0,0,1,.406.183Zm-2.435.9H5.965V7.591H7.049Zm-3.516-.9a.535.535,0,0,1,.407-.183h.94V8.676H3.461S3.4,8.155,3.4,8.134a.532.532,0,0,1,.136-.359Zm.2,3.07L3.6,9.76H4.88v1.084Zm2.232,0V9.76H7.049v1.084ZM8.134,9.76H9.426l-.132,1.084H8.134Zm.542-4.338H4.338V4.338A.542.542,0,0,1,4.88,3.8H8.134a.542.542,0,0,1,.542.542Zm4.338-2.711V7.049A2.711,2.711,0,0,1,11.658,9.4l.114-.937A2.711,2.711,0,0,0,9.76,5.51V4.338A1.627,1.627,0,0,0,8.134,2.711H4.88A1.627,1.627,0,0,0,3.253,4.338V5.511a2.711,2.711,0,0,0-2,2.959l.116.933A2.711,2.711,0,0,1,0,7.049V2.711A2.714,2.714,0,0,1,2.711,0H10.3A2.714,2.714,0,0,1,13.014,2.711Z" fill="#6f109e"/>
</svg>
