<svg xmlns="http://www.w3.org/2000/svg" width="13.012" height="13.011" viewBox="0 0 13.012 13.011">
  <path id="megaphone" d="M12.469,8.674a.542.542,0,0,1-.242-.057l-1.084-.542a.542.542,0,1,1,.485-.97l1.084.542a.542.542,0,0,1-.243,1.027Zm-.842-4.933L12.711,3.2a.542.542,0,0,0-.485-.97l-1.084.542a.542.542,0,1,0,.485.97Zm1.384,1.681a.542.542,0,0,0-.542-.542H11.384a.542.542,0,0,0,0,1.084h1.084A.542.542,0,0,0,13.011,5.421ZM9.758,10.3V.542a.542.542,0,0,0-1.084,0c0,1.6-1.4,2.168-2.711,2.168H2.168A2.168,2.168,0,0,0,0,4.879V5.963A2.168,2.168,0,0,0,2.168,8.132H5.963c1.31,0,2.711.57,2.711,2.168a.542.542,0,1,0,1.084,0ZM4.438,9.216H2.168a3.253,3.253,0,0,1-.749-.091l1.355,3.026a1.448,1.448,0,0,0,1.323.859,1.335,1.335,0,0,0,1.215-1.882Z" fill="#6f109e"/>
</svg>
