<svg xmlns="http://www.w3.org/2000/svg" width="13.014" height="15.963" viewBox="0 0 13.014 15.963">
  <g id="Group_56691" data-name="Group 56691" transform="translate(-778.928 -600.631)">
    <path id="Path_214" data-name="Path 214" d="M176.364,0c.423.114.852.209,1.267.347a3.613,3.613,0,0,1,1.259.691,2.175,2.175,0,0,1,.73,2.171,3.552,3.552,0,0,1-.082.347.5.5,0,0,0,.042.5.905.905,0,0,1,.044.682,1.677,1.677,0,0,1-.265.755.373.373,0,0,0-.044.131,4.149,4.149,0,0,1-1.223,2.157,2.159,2.159,0,0,1-3.184.024,3.816,3.816,0,0,1-1.252-2.2.307.307,0,0,0-.04-.115,2.077,2.077,0,0,1-.3-1.2,1.445,1.445,0,0,1,.119-.356.422.422,0,0,0,.014-.2,3.3,3.3,0,0,1-.074-1.493,2.872,2.872,0,0,1,2.37-2.212A.532.532,0,0,0,175.835,0Z" transform="translate(608.95 600.631)" fill="#6f109e"/>
    <path id="Path_215" data-name="Path 215" d="M59.876,299.022a26.378,26.378,0,0,1-4.368-.318c-.574-.1-1.135-.273-1.7-.413a.466.466,0,0,1-.371-.395,3.68,3.68,0,0,1-.066-.692,11.563,11.563,0,0,1,.318-2.693,5.34,5.34,0,0,1,.757-1.742,2.161,2.161,0,0,1,1.068-.715c.55-.211,1.094-.437,1.64-.659a.483.483,0,0,0,.148-.084.272.272,0,0,1,.436.012.3.3,0,0,1,.087.174c0,.575-.018,1.15-.024,1.725a.728.728,0,0,0,.045.255q.864,2.319,1.735,4.637a.943.943,0,0,0,.068.156.266.266,0,0,0,.462.006.852.852,0,0,0,.069-.156q.872-2.325,1.741-4.651a.683.683,0,0,0,.041-.241c-.006-.57-.009-1.14-.033-1.71-.008-.193.136-.228.244-.295.043-.027.143,0,.2.038a8.149,8.149,0,0,0,1.781.76,2.319,2.319,0,0,1,1.5,1.316,7.833,7.833,0,0,1,.664,2.6c.045.541.053,1.085.067,1.629a1.28,1.28,0,0,1-.062.35.514.514,0,0,1-.359.371,11.478,11.478,0,0,1-2.842.564c-1.078.093-2.161.139-3.242.206l0-.039" transform="translate(725.559 317.533)" fill="#6f109e"/>
    <path id="Path_216" data-name="Path 216" d="M258.085,322.539a2.624,2.624,0,0,0,1.615.015l-.685,1.05c.179.2.342.385.515.563a.246.246,0,0,1,.086.241c-.215,1.28-.422,2.562-.635,3.842a.458.458,0,0,1-.079.136c-.031-.047-.081-.091-.09-.141-.213-1.275-.421-2.552-.634-3.827a.259.259,0,0,1,.088-.256c.172-.172.33-.358.511-.558l-.692-1.066" transform="translate(526.543 287.073)" fill="#6f109e"/>
  </g>
</svg>
