<svg xmlns="http://www.w3.org/2000/svg" width="14.202" height="14.202" viewBox="0 0 14.202 14.202">
  <path id="users" d="M4.438,7.693A2.663,2.663,0,1,1,7.1,5.03,2.663,2.663,0,0,1,4.438,7.693ZM8.284,14.2H.592A.592.592,0,0,1,0,13.61v-.3a4.438,4.438,0,0,1,8.876,0v.3A.592.592,0,0,1,8.284,14.2Zm2.071-8.876a2.663,2.663,0,1,1,2.663-2.663,2.663,2.663,0,0,1-2.663,2.663Zm-.841,1.2A4.039,4.039,0,0,0,6.751,8.2a5.643,5.643,0,0,1,2.908,3.046H13.61a.592.592,0,0,0,.592-.592v-.022A4.147,4.147,0,0,0,9.515,6.522Z" fill="#6f109e"/>
</svg>
