<svg xmlns="http://www.w3.org/2000/svg" width="11.568" height="11.568" viewBox="0 0 11.568 11.568">
  <g id="edit" transform="translate(0 -0.501)">
    <path id="Path_9768" data-name="Path 9768" d="M9.158,89.672a.482.482,0,0,0-.482.482V94.01a.482.482,0,0,1-.482.482H1.446a.482.482,0,0,1-.482-.482V87.262a.482.482,0,0,1,.482-.482H5.3a.482.482,0,0,0,0-.964H1.446A1.448,1.448,0,0,0,0,87.262V94.01a1.448,1.448,0,0,0,1.446,1.446H8.194A1.448,1.448,0,0,0,9.64,94.01V90.154a.482.482,0,0,0-.482-.482Zm0,0" transform="translate(0 -83.387)" fill="#6f109e"/>
    <path id="Path_9769" data-name="Path 9769" d="M182.22,72.076a.244.244,0,0,0-.066.123l-.341,1.7a.241.241,0,0,0,.237.288.23.23,0,0,0,.047,0l1.7-.341a.24.24,0,0,0,.123-.066l3.814-3.814-1.7-1.7Zm0,0" transform="translate(-177.701 -66.23)" fill="#6f109e"/>
    <path id="Path_9770" data-name="Path 9770" d="M393.816.853a1.206,1.206,0,0,0-1.7,0l-.667.667,1.7,1.7.667-.667a1.2,1.2,0,0,0,0-1.7Zm0,0" transform="translate(-382.601)" fill="#6f109e"/>
  </g>
</svg>
