<svg xmlns="http://www.w3.org/2000/svg" width="122" height="122" viewBox="0 0 122 122">
  <g id="Group_56865" data-name="Group 56865" transform="translate(-904.977 -370.977)">
    <g id="Group_56939" data-name="Group 56939">
      <circle id="Ellipse_542" data-name="Ellipse 542" cx="61" cy="61" r="61" transform="translate(904.977 370.977)" fill="#fff0f0"/>
      <path id="Path_9763" data-name="Path 9763" d="M178.754,98a35.754,35.754,0,1,0,35.754,35.754A35.753,35.753,0,0,0,178.754,98Zm0,57.694a4.063,4.063,0,1,1,4.063-4.063A4.063,4.063,0,0,1,178.754,155.694Zm3-13.307a1.743,1.743,0,0,1-1.743,1.743h-3.265A1.742,1.742,0,0,1,175,142.387l-1.126-30.267a1.743,1.743,0,0,1,1.743-1.743h6.265a1.743,1.743,0,0,1,1.743,1.743Z" transform="translate(786.977 297.977)" fill="#ff5f60"/>
    </g>
  </g>
</svg>
