<svg xmlns="http://www.w3.org/2000/svg" width="12" height="12" viewBox="0 0 12 12">
  <g id="share" transform="translate(-2 -2)">
    <path id="Path_9828" data-name="Path 9828" d="M16.6,2H13a.6.6,0,1,0,0,1.2h2.152L10.176,8.176a.6.6,0,1,0,.848.848L16,4.048V6.2a.6.6,0,0,0,1.2,0V2.6A.6.6,0,0,0,16.6,2Z" transform="translate(-3.2)" fill="#fff"/>
    <path id="Path_9829" data-name="Path 9829" d="M12.2,7.953a.6.6,0,0,0-.6.6v4.3a.75.75,0,0,1-.749.749h-6.9a.75.75,0,0,1-.749-.749v-6.9A.75.75,0,0,1,3.949,5.2H7.683a.6.6,0,0,0,0-1.2H3.949A1.952,1.952,0,0,0,2,5.949v6.9A1.952,1.952,0,0,0,3.949,14.8h6.9A1.952,1.952,0,0,0,12.8,12.851v-4.3A.6.6,0,0,0,12.2,7.953Z" transform="translate(0 -0.8)" fill="#fff"/>
  </g>
</svg>
