<svg xmlns="http://www.w3.org/2000/svg" width="23.927" height="17.944" viewBox="0 0 23.927 17.944">
  <g id="Group_56841" data-name="Group 56841" transform="translate(0 -2.991)">
    <g id="Group_56848" data-name="Group 56848">
      <g id="Group_56839" data-name="Group 56839">
        <g id="Group_56849" data-name="Group 56849">
          <g id="Group_56837" data-name="Group 56837">
            <g id="Group_56850" data-name="Group 56850">
              <path id="Path_9717" data-name="Path 9717" d="M0,56.79a14.329,14.329,0,0,1,9.172-6.976,12.308,12.308,0,0,1,7.836.734.315.315,0,0,0,.417-.082c.732-.744,1.473-1.479,2.211-2.217a.727.727,0,0,1,.768-.208.708.708,0,0,1,.512.555.779.779,0,0,1-.266.755q-1.516,1.507-3.025,3.022Q11,59,4.377,65.623a.833.833,0,0,1-.762.314.711.711,0,0,1-.585-.509.718.718,0,0,1,.2-.77q.932-.935,1.867-1.867c.061-.06.132-.11.225-.187A15.73,15.73,0,0,1,0,57.164Zm16.057-5a.746.746,0,0,0-.084-.045,10.889,10.889,0,0,0-7.653-.135,13.433,13.433,0,0,0-6.607,5.229c-.095.134-.036.207.031.3a14.592,14.592,0,0,0,3.315,3.425c.435.321.9.607,1.322.894L8.3,59.554a4.439,4.439,0,0,1-.807-2.894,4.5,4.5,0,0,1,3.7-4.1,4.448,4.448,0,0,1,3.354.748l1.514-1.514M9.4,58.447l4.033-4.031A2.943,2.943,0,0,0,9.4,58.447" transform="translate(0 -45.013)"/>
              <path id="Path_9718" data-name="Path 9718" d="M147.843,121.041a14.462,14.462,0,0,1-8.782,6.886,12.389,12.389,0,0,1-6.8-.123.9.9,0,0,1-.112-.055c.4-.393.777-.777,1.167-1.153a.251.251,0,0,1,.194-.028,11.272,11.272,0,0,0,9.9-2.588,14.635,14.635,0,0,0,2.7-2.961.238.238,0,0,0,0-.325,15.186,15.186,0,0,0-3.139-3.307l-.228-.178,1.092-1.082a15.508,15.508,0,0,1,4.007,4.541Z" transform="translate(-123.917 -108.89)"/>
              <path id="Path_9719" data-name="Path 9719" d="M173.151,179.265c.475-.472.9-.9,1.335-1.322a.392.392,0,0,1,.216-.068,2.971,2.971,0,0,0,2.573-2.571.392.392,0,0,1,.067-.216c.421-.434.85-.86,1.285-1.3a4.29,4.29,0,0,1-.943,4.1,4.471,4.471,0,0,1-4.534,1.376" transform="translate(-162.362 -162.962)"/>
            </g>
          </g>
        </g>
      </g>
    </g>
  </g>
</svg>
