<svg xmlns="http://www.w3.org/2000/svg" width="23.927" height="14.991" viewBox="0 0 23.927 14.991">
  <g id="Group_56847" data-name="Group 56847" transform="translate(0.348 -4.47)">
    <g id="Group_56853" data-name="Group 56853">
      <g id="Group_56845" data-name="Group 56845">
        <g id="Group_56851" data-name="Group 56851">
          <g id="Group_56843" data-name="Group 56843">
            <g id="Group_56852" data-name="Group 56852">
              <path id="Path_9724" data-name="Path 9724" d="M0,79.042A14.2,14.2,0,0,1,9.143,72.08a12.548,12.548,0,0,1,10.745,2.4A15.389,15.389,0,0,1,23.7,78.642c.082.13.153.267.229.4v.374a14.3,14.3,0,0,1-8.736,6.864A12.476,12.476,0,0,1,4.721,84.465,15.328,15.328,0,0,1,.216,79.8c-.078-.124-.145-.254-.217-.381v-.374m12.2-5.795a11.233,11.233,0,0,0-3.9.618,13.591,13.591,0,0,0-6.589,5.221.223.223,0,0,0,.018.305,14.5,14.5,0,0,0,3.323,3.451,11.052,11.052,0,0,0,10.4,1.794,13.2,13.2,0,0,0,6.759-5.285c.088-.125.029-.2-.032-.284a14.885,14.885,0,0,0-2.519-2.811,11.5,11.5,0,0,0-7.467-3.01" transform="translate(-0.346 -67.266)"/>
              <path id="Path_9726" data-name="Path 9726" d="M124.5,120a4.486,4.486,0,1,1-4.5,4.475A4.493,4.493,0,0,1,124.5,120m2.98,4.494a2.991,2.991,0,1,0-2.993,2.982,3,3,0,0,0,2.993-2.982" transform="translate(-112.873 -112.526)"/>
            </g>
          </g>
        </g>
      </g>
    </g>
  </g>
</svg>
