<svg id="Group_56873" data-name="Group 56873" xmlns="http://www.w3.org/2000/svg" xmlns:xlink="http://www.w3.org/1999/xlink" width="51.272" height="62.675" viewBox="0 0 51.272 62.675">
  <defs>
    <clipPath id="clip-path">
      <path id="Path_9705" data-name="Path 9705" d="M20.781,13.045,0,37.683H19.777l-3.51,14.1-2.713,10.9,9.289-11.012,1.712-2.028L45.336,25H25.559L31.779.007Z" transform="translate(0 -0.007)" fill="none"/>
    </clipPath>
    <linearGradient id="linear-gradient" x1="0.5" x2="0.5" y2="1" gradientUnits="objectBoundingBox">
      <stop offset="0" stop-color="#ffb75e"/>
      <stop offset="1" stop-color="#ff9614"/>
    </linearGradient>
    <clipPath id="clip-path-2">
      <path id="Path_9706" data-name="Path 9706" d="M0,105.536H20.941a5.148,5.148,0,0,1,5,6.394l-1.383,5.563.988-1.173L45.336,92.854H24.392a5.15,5.15,0,0,1-5-6.394L20.781,80.9Z" transform="translate(0 -80.897)" fill="none"/>
    </clipPath>
    <linearGradient id="linear-gradient-2" x1="0.5" x2="0.5" y2="1" gradientUnits="objectBoundingBox">
      <stop offset="0" stop-color="#ffb75e"/>
      <stop offset="1" stop-color="#ffce00"/>
    </linearGradient>
    <clipPath id="clip-path-3">
      <rect id="Rectangle_3380" data-name="Rectangle 3380" width="6.973" height="24.997" fill="none"/>
    </clipPath>
    <clipPath id="clip-path-4">
      <path id="Path_9707" data-name="Path 9707" d="M160.881,0l-6.973,25h.751Z" transform="translate(-153.908)" fill="none"/>
    </clipPath>
    <linearGradient id="linear-gradient-3" x1="-3.557" y1="2.507" x2="-3.534" y2="2.507" gradientUnits="objectBoundingBox">
      <stop offset="0" stop-color="#414042"/>
      <stop offset="1" stop-color="#231f20"/>
    </linearGradient>
    <clipPath id="clip-path-5">
      <rect id="Rectangle_3382" data-name="Rectangle 3382" width="7.18" height="24.997" fill="none"/>
    </clipPath>
    <clipPath id="clip-path-6">
      <path id="Path_9708" data-name="Path 9708" d="M84.1,258.763l7.18-25h-.959Z" transform="translate(-84.1 -233.767)" fill="none"/>
    </clipPath>
    <linearGradient id="linear-gradient-4" x1="-1.888" y1="1" x2="-1.865" y2="1" xlink:href="#linear-gradient-3"/>
    <clipPath id="clip-path-7">
      <rect id="Rectangle_3384" data-name="Rectangle 3384" width="27.286" height="12.526" fill="none"/>
    </clipPath>
    <clipPath id="clip-path-8">
      <path id="Path_9709" data-name="Path 9709" d="M26.906,238.011l-1.363,3.58-.988,1.172,1.383-5.563a5.148,5.148,0,0,0-5-6.394H0l21.393-.567a5.736,5.736,0,0,1,5.513,7.771" transform="translate(0 -230.237)" fill="none"/>
    </clipPath>
    <linearGradient id="linear-gradient-5" y1="2.032" x2="0.006" y2="2.032" gradientUnits="objectBoundingBox">
      <stop offset="0" stop-color="#808285"/>
      <stop offset="1"/>
    </linearGradient>
    <clipPath id="clip-path-10">
      <path id="Path_9710" data-name="Path 9710" d="M112.363,85.658l1.364-3.58.988-1.173-1.383,5.563a5.148,5.148,0,0,0,5,6.394h20.941l-21.393.567a5.736,5.736,0,0,1-5.513-7.772" transform="translate(-111.982 -80.905)" fill="none"/>
    </clipPath>
    <linearGradient id="linear-gradient-6" x1="-0.599" y1="3.93" x2="-0.593" y2="3.93" xlink:href="#linear-gradient-5"/>
  </defs>
  <circle id="Ellipse_113" data-name="Ellipse 113" cx="25.636" cy="25.636" r="25.636" transform="translate(0 5.248)" fill="#6022b2"/>
  <circle id="Ellipse_112" data-name="Ellipse 112" cx="23.636" cy="23.636" r="23.636" transform="translate(2 7.247)" fill="#481e81"/>
  <g id="Group_19860" data-name="Group 19860" transform="translate(3.937)">
    <g id="Group_19861" data-name="Group 19861">
      <g id="Group_19834" data-name="Group 19834" transform="translate(0 0.001)">
        <g id="Group_19833" data-name="Group 19833" clip-path="url(#clip-path)">
          <rect id="Rectangle_3377" data-name="Rectangle 3377" width="45.336" height="62.674" transform="translate(0 0)" fill="url(#linear-gradient)"/>
        </g>
      </g>
      <g id="Group_19836" data-name="Group 19836" transform="translate(0 13.039)">
        <g id="Group_19835" data-name="Group 19835" clip-path="url(#clip-path-2)">
          <rect id="Rectangle_3378" data-name="Rectangle 3378" width="45.336" height="36.596" fill="url(#linear-gradient-2)"/>
        </g>
      </g>
      <g id="Group_19858" data-name="Group 19858">
        <g id="Group_19862" data-name="Group 19862">
          <g id="Group_19841" data-name="Group 19841" transform="translate(24.806)" style="mix-blend-mode: screen;isolation: isolate">
            <g id="Group_19840" data-name="Group 19840">
              <g id="Group_19839" data-name="Group 19839" clip-path="url(#clip-path-3)">
                <g id="Group_19838" data-name="Group 19838">
                  <g id="Group_19837" data-name="Group 19837" clip-path="url(#clip-path-4)">
                    <rect id="Rectangle_3379" data-name="Rectangle 3379" width="6.973" height="24.997" fill="url(#linear-gradient-3)"/>
                  </g>
                </g>
              </g>
            </g>
          </g>
          <g id="Group_19846" data-name="Group 19846" transform="translate(13.555 37.678)" style="mix-blend-mode: screen;isolation: isolate">
            <g id="Group_19845" data-name="Group 19845">
              <g id="Group_19844" data-name="Group 19844" clip-path="url(#clip-path-5)">
                <g id="Group_19843" data-name="Group 19843" transform="translate(0)">
                  <g id="Group_19842" data-name="Group 19842" clip-path="url(#clip-path-6)">
                    <rect id="Rectangle_3381" data-name="Rectangle 3381" width="7.18" height="24.997" fill="url(#linear-gradient-4)"/>
                  </g>
                </g>
              </g>
            </g>
          </g>
          <g id="Group_19851" data-name="Group 19851" transform="translate(0 37.109)" style="mix-blend-mode: screen;isolation: isolate">
            <g id="Group_19850" data-name="Group 19850">
              <g id="Group_19849" data-name="Group 19849" clip-path="url(#clip-path-7)">
                <g id="Group_19848" data-name="Group 19848" transform="translate(0 0)">
                  <g id="Group_19847" data-name="Group 19847" clip-path="url(#clip-path-8)">
                    <rect id="Rectangle_3383" data-name="Rectangle 3383" width="28.356" height="12.631" transform="translate(0 -0.104)" fill="url(#linear-gradient-5)"/>
                  </g>
                </g>
              </g>
            </g>
          </g>
          <g id="Group_19856" data-name="Group 19856" transform="translate(18.049 13.04)" style="mix-blend-mode: screen;isolation: isolate">
            <g id="Group_19855" data-name="Group 19855">
              <g id="Group_19854" data-name="Group 19854" clip-path="url(#clip-path-7)">
                <g id="Group_19853" data-name="Group 19853" transform="translate(0)">
                  <g id="Group_19852" data-name="Group 19852" clip-path="url(#clip-path-10)">
                    <rect id="Rectangle_3385" data-name="Rectangle 3385" width="28.356" height="12.631" transform="translate(-1.07)" fill="url(#linear-gradient-6)"/>
                  </g>
                </g>
              </g>
            </g>
          </g>
        </g>
      </g>
    </g>
  </g>
</svg>
