<svg xmlns="http://www.w3.org/2000/svg" width="373.446" height="249.925" viewBox="0 0 373.446 249.925">
  <g id="Group_56936" data-name="Group 56936" transform="translate(-1412 -309)">
    <g id="Group_56932" data-name="Group 56932" transform="translate(1412 309)">
      <path id="Path_9771" data-name="Path 9771" d="M1782.547,498.54h-39.265A153.606,153.606,0,0,0,1731.009,392.5h27.846a2.9,2.9,0,0,0,2.9-2.9h0a2.9,2.9,0,0,0-2.9-2.9h-30.969a153.035,153.035,0,0,0-232.734-40.923h-47.116a2.9,2.9,0,0,0-2.9,2.9h0a2.9,2.9,0,0,0,2.9,2.9h40.721q-4.878,4.679-9.332,9.775H1414.9a2.9,2.9,0,0,0-2.9,2.9h0a2.9,2.9,0,0,0,2.9,2.9h59.7a153.211,153.211,0,0,0-22.073,151.6h-7.64a2.9,2.9,0,0,0-2.9,2.9h0a2.9,2.9,0,0,0,2.9,2.9h10.1q1.582,3.528,3.335,6.959h-34.308a2.9,2.9,0,0,0-2.9,2.9h0a2.9,2.9,0,0,0,2.9,2.9h37.429a153.225,153.225,0,0,0,11.994,18.059h242.458a152.819,152.819,0,0,0,20.3-35.124h28.458a2.9,2.9,0,0,0,2.9-2.9h0a2.9,2.9,0,0,0-2.9-2.9h-26.207q1.815-4.975,3.291-10.107h40.809a2.9,2.9,0,0,0,2.9-2.9h0A2.9,2.9,0,0,0,1782.547,498.54Z" transform="translate(-1412 -309)" fill="#f9f8f8"/>
      <g id="Group_56878" data-name="Group 56878" transform="translate(188.694 10.14)">
        <g id="Group_56873" data-name="Group 56873" transform="translate(0 88.672)">
          <path id="Path_9772" data-name="Path 9772" d="M2809.3,1783.743h-18.536a2.423,2.423,0,0,1,2.423-2.423h13.689a2.423,2.423,0,0,1,2.423,2.423Z" transform="translate(-2751.018 -1636.196)" fill="#f2f2f2"/>
          <path id="Path_9773" data-name="Path 9773" d="M2827.015,1326.331h-9.754l3.17-90.353,2.13,1.416Z" transform="translate(-2773.128 -1181.207)" fill="#f2f2f2"/>
          <g id="Group_56872" data-name="Group 56872" transform="translate(0)">
            <path id="Path_9774" data-name="Path 9774" d="M2800.971,1783.743h-18.536a2.423,2.423,0,0,1,2.423-2.423h13.689a2.423,2.423,0,0,1,2.423,2.423Z" transform="translate(-2744.073 -1636.196)" fill="#f2f2f2"/>
            <g id="Group_56871" data-name="Group 56871">
              <g id="Group_56870" data-name="Group 56870">
                <path id="Path_9775" data-name="Path 9775" d="M2838.373,1232.171l46.641,26.928-.51-2.651a2.189,2.189,0,0,0-.809-1.317l-30.471-23.587a2.188,2.188,0,0,0-1.966-.366l-6.113,1.827a2.188,2.188,0,0,1-1.72-.2l-4.063-2.346Z" transform="translate(-2790.743 -1176.601)" fill="#f2f2f2"/>
                <path id="Path_9776" data-name="Path 9776" d="M2597.534,1230.457l-46.641,26.928,2.546.883a2.2,2.2,0,0,0,1.553-.043l35.653-14.591a2.2,2.2,0,0,0,1.307-1.527l1.472-6.2a2.2,2.2,0,0,1,1.04-1.4l4.058-2.343Z" transform="translate(-2550.893 -1176.601)" fill="#f2f2f2"/>
                <path id="Path_9777" data-name="Path 9777" d="M2804.111,959.254V905.4l-2.04,1.765a2.194,2.194,0,0,0-.738,1.363l-5.191,38.177a2.194,2.194,0,0,0,.667,1.891l4.634,4.377a2.195,2.195,0,0,1,.688,1.6v4.689Z" transform="translate(-2755.493 -905.398)" fill="#f2f2f2"/>
                <path id="Path_9778" data-name="Path 9778" d="M2820.309,1326.331h-8.952l3.17-90.353h2.612Z" transform="translate(-2768.203 -1181.207)" fill="#f2f2f2"/>
                <circle id="Ellipse_543" data-name="Ellipse 543" cx="2.293" cy="2.293" r="2.293" transform="translate(44.872 56.476) rotate(-76.718)" fill="#f2f2f2"/>
              </g>
            </g>
          </g>
          <circle id="Ellipse_544" data-name="Ellipse 544" cx="2.091" cy="2.091" r="2.091" transform="translate(45.384 52.545)" fill="#f2f2f2"/>
          <path id="Path_9779" data-name="Path 9779" d="M2551.72,1261.443l44.557-26.435-.04-.031-45.344,26.179Z" transform="translate(-2550.893 -1180.372)" fill="#f2f2f2"/>
          <rect id="Rectangle_3454" data-name="Rectangle 3454" width="8.932" height="0.587" transform="translate(43.175 144.537)" fill="#f2f2f2"/>
          <path id="Path_9780" data-name="Path 9780" d="M2840.354,905.972l.613,52.171.047-.019V905.4Z" transform="translate(-2792.396 -905.398)" fill="#f2f2f2"/>
          <path id="Path_9781" data-name="Path 9781" d="M2891.382,1270.388l-45.171-25.37-.007.05,45.344,26.179Z" transform="translate(-2797.276 -1188.75)" fill="#f2f2f2"/>
        </g>
        <g id="Group_56877" data-name="Group 56877" transform="translate(25.874)">
          <path id="Path_9782" data-name="Path 9782" d="M3120.758,1776.41h-29.676a3.88,3.88,0,0,1,3.88-3.879h21.917a3.879,3.879,0,0,1,3.879,3.879Z" transform="translate(-3027.457 -1540.19)" fill="#ececec"/>
          <path id="Path_9783" data-name="Path 9783" d="M3149.127,1044.105h-15.616l5.076-144.653,3.41,2.267Z" transform="translate(-3062.856 -811.765)" fill="#ececec"/>
          <g id="Group_56876" data-name="Group 56876" transform="translate(0 0)">
            <path id="Path_9784" data-name="Path 9784" d="M3107.432,1776.41h-29.676a3.879,3.879,0,0,1,3.879-3.879h21.917a3.88,3.88,0,0,1,3.88,3.879Z" transform="translate(-3016.34 -1540.19)" fill="#f2f2f2"/>
            <g id="Group_56875" data-name="Group 56875">
              <g id="Group_56874" data-name="Group 56874">
                <path id="Path_9785" data-name="Path 9785" d="M3167.312,893.357l74.671,43.111-.909-4.731a2.193,2.193,0,0,0-.81-1.318l-49.709-38.479a2.19,2.19,0,0,0-1.968-.367l-10.975,3.279a2.19,2.19,0,0,1-1.722-.2l-6.994-4.038Z" transform="translate(-3091.057 -804.391)" fill="#f2f2f2"/>
                <path id="Path_9786" data-name="Path 9786" d="M2781.734,890.613l-74.67,43.111,4.551,1.578a2.194,2.194,0,0,0,1.549-.042l59.218-24.235,3.126-13.157,7.812-4.51Z" transform="translate(-2707.063 -804.391)" fill="#f2f2f2"/>
                <path id="Path_9787" data-name="Path 9787" d="M3112.06,456.425V370.2l-3.641,3.152a2.2,2.2,0,0,0-.738,1.364L3099.212,437a2.195,2.195,0,0,0,.668,1.891l8.324,7.862a2.195,2.195,0,0,1,.688,1.6v8.074Z" transform="translate(-3034.223 -370.203)" fill="#f2f2f2"/>
                <path id="Path_9788" data-name="Path 9788" d="M3138.391,1044.105h-14.333l5.075-144.653h4.181Z" transform="translate(-3054.97 -811.765)" fill="#f2f2f2"/>
                <circle id="Ellipse_545" data-name="Ellipse 545" cx="3.671" cy="3.671" r="3.671" transform="translate(71.459 89.673) rotate(-67.5)" fill="#ececec"/>
              </g>
            </g>
          </g>
          <circle id="Ellipse_546" data-name="Ellipse 546" cx="3.347" cy="3.347" r="3.347" transform="translate(71.632 89.282) rotate(-67.5)" fill="#f2f2f2"/>
          <path id="Path_9789" data-name="Path 9789" d="M2708.387,940.221l71.334-42.322-.064-.049-72.594,41.912Z" transform="translate(-2707.063 -810.429)" fill="#ececec"/>
          <rect id="Rectangle_3455" data-name="Rectangle 3455" width="14.299" height="0.94" transform="translate(69.122 231.4)" fill="#ececec"/>
          <path id="Path_9790" data-name="Path 9790" d="M3170.482,371.121l.982,83.524.075-.031V370.2Z" transform="translate(-3093.702 -370.203)" fill="#ececec"/>
          <path id="Path_9791" data-name="Path 9791" d="M3252.177,954.542l-72.318-40.616-.011.08,72.594,41.912Z" transform="translate(-3101.516 -823.841)" fill="#ececec"/>
        </g>
      </g>
      <g id="Group_56881" data-name="Group 56881" transform="translate(52.816 62.391)">
        <g id="Group_56879" data-name="Group 56879" transform="translate(0 39.196)">
          <rect id="Rectangle_3456" data-name="Rectangle 3456" width="34.745" height="74.735" rx="17.373" fill="#f2f2f2"/>
          <path id="Path_9792" data-name="Path 9792" d="M1831.811,1202.157h-1.9V1085.085a.948.948,0,0,1,.948-.948h0a.948.948,0,0,1,.948.948Z" transform="translate(-1813.491 -1057.298)" fill="#e4e4e4"/>
          <path id="Path_9793" data-name="Path 9793" d="M1805.911,1137.273l-5.27-9.129a.948.948,0,0,0-1.641.948l5.27,9.129Z" transform="translate(-1787.59 -1093.619)" fill="#e4e4e4"/>
          <path id="Path_9794" data-name="Path 9794" d="M1831.558,1198.4l5.27-9.128a.948.948,0,1,0-1.641-.948l-5.271,9.128Z" transform="translate(-1813.491 -1143.827)" fill="#e4e4e4"/>
        </g>
        <g id="Group_56880" data-name="Group 56880" transform="translate(39.675)">
          <rect id="Rectangle_3457" data-name="Rectangle 3457" width="44.122" height="94.903" rx="22.061" fill="#f2f2f2"/>
          <path id="Path_9795" data-name="Path 9795" d="M2098.544,1041.142h-2.407V892.478a1.2,1.2,0,0,1,1.2-1.2h0a1.2,1.2,0,0,1,1.2,1.2Z" transform="translate(-2075.279 -857.193)" fill="#e4e4e4"/>
          <path id="Path_9796" data-name="Path 9796" d="M2065.653,958.749l-6.693-11.592a1.2,1.2,0,0,0-2.085,1.2l6.693,11.592Z" transform="translate(-2042.389 -903.315)" fill="#e4e4e4"/>
          <path id="Path_9797" data-name="Path 9797" d="M2098.221,1036.371l6.693-11.592a1.2,1.2,0,1,0-2.084-1.2l-6.693,11.592Z" transform="translate(-2075.279 -967.072)" fill="#e4e4e4"/>
        </g>
      </g>
      <g id="Group_56889" data-name="Group 56889" transform="translate(60.214 213.67)">
        <g id="Group_56884" data-name="Group 56884" transform="translate(0 0)">
          <g id="Group_56882" data-name="Group 56882" transform="translate(0 14.969)">
            <path id="Path_9798" data-name="Path 9798" d="M1796.125,1700.225c1.012-.952,1.475-2.038,1.076-2.8-.494-.947-2.147-1.092-3.912-.425q.135-.345.25-.711c.941-3,.4-5.845-1.2-6.348-1.563-.489-3.561,1.425-4.532,4.3-.8-3.3-2.869-5.624-4.64-5.208-1.667.392-2.484,3.076-1.948,6.153-2.443-1.078-4.8-.993-5.55.308-.777,1.347.433,3.533,2.74,5.125a2.541,2.541,0,0,0-1.948,1.878c-.127,1.033.759,2.051,2.163,2.68a1,1,0,0,0-.053.6c.147.623.936,1.007,1.967,1.048v0h13.2v-.011a.58.58,0,0,0,.508-.313.46.46,0,0,0-.043-.375,1.5,1.5,0,0,0,1.371-.79,1.271,1.271,0,0,0-.241-1.16c1.782-.119,3.151-.9,3.194-1.9C1798.564,1701.391,1797.566,1700.591,1796.125,1700.225Z" transform="translate(-1775.434 -1688.988)" fill="#e4e4e4"/>
          </g>
          <g id="Group_56883" data-name="Group 56883" transform="translate(10.072)">
            <path id="Path_9799" data-name="Path 9799" d="M1874.278,1619.306c1.862-1.75,2.713-3.747,1.979-5.153-.909-1.741-3.95-2.007-7.2-.782q.249-.634.46-1.307c1.73-5.524.742-10.75-2.207-11.674-2.874-.9-6.55,2.621-8.335,7.915-1.479-6.067-5.277-10.343-8.533-9.577-3.066.721-4.568,5.657-3.582,11.315-4.492-1.983-8.826-1.825-10.207.566-1.43,2.476.8,6.5,5.04,9.426-2.011.674-3.394,1.907-3.583,3.454-.232,1.9,1.4,3.772,3.979,4.928a1.84,1.84,0,0,0-.1,1.1c.27,1.145,1.721,1.852,3.618,1.927v.006h24.27v-.021a1.067,1.067,0,0,0,.935-.575.845.845,0,0,0-.078-.69,2.764,2.764,0,0,0,2.522-1.454,2.338,2.338,0,0,0-.443-2.133c3.277-.219,5.795-1.655,5.875-3.5C1878.765,1621.449,1876.929,1619.978,1874.278,1619.306Z" transform="translate(-1836.227 -1598.639)" fill="#f2f2f2"/>
          </g>
        </g>
        <g id="Group_56885" data-name="Group 56885" transform="translate(207.35 3.514)">
          <path id="Path_9800" data-name="Path 9800" d="M3030.864,1638.253c-1.658-1.558-2.416-3.337-1.762-4.589.809-1.55,3.517-1.788,6.407-.7q-.221-.565-.41-1.164c-1.54-4.919-.66-9.572,1.965-10.395,2.559-.8,5.832,2.334,7.422,7.048,1.317-5.4,4.7-9.21,7.6-8.528,2.73.642,4.068,5.038,3.189,10.076,4-1.766,7.859-1.626,9.088.5,1.273,2.2-.71,5.785-4.488,8.393,1.791.6,3.022,1.7,3.191,3.075.207,1.691-1.243,3.359-3.543,4.389a1.637,1.637,0,0,1,.086.978c-.24,1.02-1.532,1.65-3.221,1.716v.006h-21.611v-.018a.95.95,0,0,1-.832-.512.754.754,0,0,1,.07-.615,2.461,2.461,0,0,1-2.246-1.294,2.083,2.083,0,0,1,.395-1.9c-2.918-.2-5.16-1.474-5.231-3.119C3026.869,1640.161,3028.5,1638.852,3030.864,1638.253Z" transform="translate(-3026.93 -1619.85)" fill="#eaeaea"/>
        </g>
        <g id="Group_56886" data-name="Group 56886" transform="translate(234.357 20.941)">
          <path id="Path_9801" data-name="Path 9801" d="M3191.529,1732.466c-.67-.629-.976-1.348-.712-1.854.327-.626,1.421-.722,2.589-.281-.06-.152-.115-.309-.166-.47-.623-1.987-.267-3.868.794-4.2,1.034-.324,2.356.943,3,2.848.533-2.182,1.9-3.721,3.07-3.446,1.1.259,1.644,2.036,1.289,4.071,1.616-.714,3.175-.657,3.672.2.514.891-.287,2.337-1.813,3.391a1.682,1.682,0,0,1,1.29,1.242c.083.683-.5,1.357-1.432,1.773a.663.663,0,0,1,.035.395c-.1.412-.619.667-1.3.693v0h-8.732v-.008a.384.384,0,0,1-.336-.207.305.305,0,0,1,.028-.248.994.994,0,0,1-.907-.523.841.841,0,0,1,.159-.767c-1.179-.079-2.084-.6-2.113-1.26C3189.915,1733.237,3190.575,1732.708,3191.529,1732.466Z" transform="translate(-3189.939 -1725.031)" fill="#e4e4e4"/>
        </g>
        <g id="Group_56887" data-name="Group 56887" transform="translate(127.159 5.196)">
          <path id="Path_9802" data-name="Path 9802" d="M2546.632,1647.347c-1.563-1.469-2.277-3.145-1.661-4.325.763-1.461,3.315-1.685,6.039-.656q-.209-.533-.386-1.1c-1.452-4.636-.623-9.023,1.852-9.8,2.412-.755,5.5,2.2,7,6.644,1.242-5.092,4.429-8.681,7.162-8.038,2.573.605,3.834,4.749,3.006,9.5,3.77-1.664,7.408-1.532,8.567.475,1.2,2.078-.669,5.452-4.23,7.911,1.688.566,2.849,1.6,3.008,2.9.195,1.594-1.172,3.166-3.34,4.137a1.542,1.542,0,0,1,.082.922c-.226.961-1.444,1.555-3.036,1.617v.005h-20.371v-.018a.9.9,0,0,1-.785-.482.709.709,0,0,1,.066-.579,2.321,2.321,0,0,1-2.117-1.22,1.964,1.964,0,0,1,.372-1.79c-2.75-.184-4.864-1.389-4.931-2.94C2542.866,1649.145,2544.406,1647.911,2546.632,1647.347Z" transform="translate(-2542.923 -1630.001)" fill="#f2f2f2"/>
        </g>
        <g id="Group_56888" data-name="Group 56888" transform="translate(151.383 17.136)">
          <path id="Path_9803" data-name="Path 9803" d="M2691.23,1711.892c-.885-.832-1.29-1.781-.94-2.45.432-.828,1.877-.954,3.42-.372q-.118-.3-.219-.621c-.822-2.626-.353-5.111,1.049-5.55,1.366-.428,3.114,1.246,3.963,3.763.7-2.884,2.509-4.917,4.057-4.553,1.457.343,2.172,2.69,1.7,5.38,2.135-.943,4.2-.868,4.852.269.68,1.177-.379,3.088-2.4,4.481a2.222,2.222,0,0,1,1.7,1.642c.111.9-.664,1.793-1.891,2.343a.875.875,0,0,1,.046.522c-.128.544-.818.881-1.72.916v0h-11.538v-.01a.507.507,0,0,1-.444-.273.4.4,0,0,1,.038-.328,1.315,1.315,0,0,1-1.2-.691,1.111,1.111,0,0,1,.211-1.014c-1.558-.1-2.755-.787-2.793-1.665C2689.1,1712.91,2689.969,1712.211,2691.23,1711.892Z" transform="translate(-2689.129 -1702.067)" fill="#e4e4e4"/>
        </g>
      </g>
      <g id="Group_56890" data-name="Group 56890" transform="translate(129.66 62.445)">
        <path id="Path_9804" data-name="Path 9804" d="M2728.583,917.313a1.363,1.363,0,0,0-.408.062c0-.068.007-.137.007-.206a2.875,2.875,0,0,0-5.643-.781,1.863,1.863,0,1,0-.507,3.656l.1,0v0h6.453a1.366,1.366,0,1,0,0-2.731Z" transform="translate(-2633.091 -876.454)" fill="#f2f2f2"/>
        <path id="Path_9805" data-name="Path 9805" d="M2304.286,695.362a4.12,4.12,0,0,0-2.126.587,6.263,6.263,0,0,0-6.885-4.807,8.874,8.874,0,0,0-16.971,3.628c0,.052,0,.1,0,.157a4.577,4.577,0,1,0-1.956,8.716h27.936a4.14,4.14,0,1,0,0-8.281Z" transform="translate(-2258.984 -685.898)" fill="#f2f2f2"/>
        <path id="Path_9806" data-name="Path 9806" d="M2197.31,1306.773a2.712,2.712,0,0,1,1.4.386,4.119,4.119,0,0,1,4.529-3.162,5.837,5.837,0,0,1,11.164,2.386c0,.035,0,.069,0,.1a3.011,3.011,0,1,1,1.286,5.733H2197.31a2.724,2.724,0,0,1,0-5.447Z" transform="translate(-2194.586 -1198.711)" fill="#f2f2f2"/>
      </g>
      <g id="Group_56931" data-name="Group 56931" transform="translate(57.228 205.594)">
        <g id="Group_56898" data-name="Group 56898" transform="translate(252.238 24.338)">
          <g id="Group_56895" data-name="Group 56895" transform="translate(0.55)">
            <g id="Group_56894" data-name="Group 56894">
              <g id="Group_56893" data-name="Group 56893">
                <g id="Group_56892" data-name="Group 56892">
                  <g id="Group_56891" data-name="Group 56891">
                    <path id="Path_9807" data-name="Path 9807" d="M3288.3,1696.957l-.043.165a4.959,4.959,0,0,1-.4.972,3.565,3.565,0,0,1-3.5,2.066,4.972,4.972,0,0,1-1.042-.122l-.166-.042.043-.165a5.014,5.014,0,0,1,.4-.972,3.565,3.565,0,0,1,3.5-2.066,4.971,4.971,0,0,1,1.043.122Zm-4.724,2.788a3.486,3.486,0,1,0,1.615-2.175A4.163,4.163,0,0,0,3283.58,1699.745Z" transform="translate(-3283.155 -1696.792)" fill="#e4e4e4"/>
                  </g>
                </g>
              </g>
            </g>
          </g>
          <g id="Group_56897" data-name="Group 56897" transform="translate(0 1.369)">
            <g id="Group_56896" data-name="Group 56896">
              <path id="Path_9808" data-name="Path 9808" d="M3283.169,1707.817a1.827,1.827,0,1,1,2.376-2.345A4.941,4.941,0,0,1,3283.169,1707.817Z" transform="translate(-3279.836 -1705.057)" fill="#f2f2f2"/>
            </g>
          </g>
        </g>
        <g id="Group_56906" data-name="Group 56906" transform="translate(246.464 5.56)">
          <g id="Group_56903" data-name="Group 56903" transform="translate(0.442)">
            <g id="Group_56902" data-name="Group 56902">
              <g id="Group_56901" data-name="Group 56901">
                <g id="Group_56900" data-name="Group 56900">
                  <g id="Group_56899" data-name="Group 56899">
                    <path id="Path_9809" data-name="Path 9809" d="M3252.942,1583.455l0,.212a6.2,6.2,0,0,1-.185,1.293,4.433,4.433,0,0,1-3.6,3.552,6.2,6.2,0,0,1-1.3.168h-.212l0-.212a6.228,6.228,0,0,1,.185-1.293,4.435,4.435,0,0,1,3.6-3.553,6.213,6.213,0,0,1,1.3-.168Zm-4.856,4.794a4.337,4.337,0,1,0,1.29-3.114A5.18,5.18,0,0,0,3248.086,1588.249Z" transform="translate(-3247.649 -1583.454)" fill="#e4e4e4"/>
                  </g>
                </g>
              </g>
            </g>
          </g>
          <g id="Group_56905" data-name="Group 56905" transform="translate(0 1.88)">
            <g id="Group_56904" data-name="Group 56904">
              <path id="Path_9810" data-name="Path 9810" d="M3249.064,1598.423a2.273,2.273,0,1,1,2.157-3.549A6.148,6.148,0,0,1,3249.064,1598.423Z" transform="translate(-3244.984 -1594.803)" fill="#f2f2f2"/>
            </g>
          </g>
        </g>
        <g id="Group_56914" data-name="Group 56914" transform="translate(32.329)">
          <g id="Group_56911" data-name="Group 56911">
            <g id="Group_56910" data-name="Group 56910">
              <g id="Group_56909" data-name="Group 56909">
                <g id="Group_56908" data-name="Group 56908">
                  <g id="Group_56907" data-name="Group 56907">
                    <path id="Path_9811" data-name="Path 9811" d="M1953.73,1549.9l.134.115a5.149,5.149,0,0,1,.727.81,3.7,3.7,0,0,1,.343,4.2,5.172,5.172,0,0,1-.585.917l-.114.135-.135-.115a5.155,5.155,0,0,1-.727-.81,3.695,3.695,0,0,1-.343-4.2,5.164,5.164,0,0,1,.586-.917Zm.463,5.667a3.613,3.613,0,1,0-1.3-2.49A4.314,4.314,0,0,0,1954.192,1555.565Z" transform="translate(-1952.534 -1549.898)" fill="#e4e4e4"/>
                  </g>
                </g>
              </g>
            </g>
          </g>
          <g id="Group_56913" data-name="Group 56913" transform="translate(1.009 0.723)">
            <g id="Group_56912" data-name="Group 56912">
              <path id="Path_9812" data-name="Path 9812" d="M1961.438,1557.539a1.893,1.893,0,1,1-1.112-3.277A5.123,5.123,0,0,1,1961.438,1557.539Z" transform="translate(-1958.624 -1554.262)" fill="#f2f2f2"/>
            </g>
          </g>
        </g>
        <g id="Group_56922" data-name="Group 56922" transform="translate(0 19.638)">
          <g id="Group_56919" data-name="Group 56919" transform="translate(0 0.441)">
            <g id="Group_56918" data-name="Group 56918">
              <g id="Group_56917" data-name="Group 56917">
                <g id="Group_56916" data-name="Group 56916">
                  <g id="Group_56915" data-name="Group 56915">
                    <path id="Path_9813" data-name="Path 9813" d="M1757.407,1671.1l.148-.01a4.366,4.366,0,0,1,.913.061,3.107,3.107,0,0,1,2.672,2.325,4.332,4.332,0,0,1,.186.9l.011.148-.148.01a4.353,4.353,0,0,1-.913-.061,3.106,3.106,0,0,1-2.672-2.325,4.352,4.352,0,0,1-.186-.9Zm3.606,3.138a3.037,3.037,0,1,0-2.243-.736A3.627,3.627,0,0,0,1761.013,1674.239Z" transform="translate(-1757.407 -1671.087)" fill="#e4e4e4"/>
                  </g>
                </g>
              </g>
            </g>
          </g>
          <g id="Group_56921" data-name="Group 56921" transform="translate(1.324)">
            <g id="Group_56920" data-name="Group 56920">
              <path id="Path_9814" data-name="Path 9814" d="M1768,1669.746a1.592,1.592,0,1,1-2.593-1.318A4.308,4.308,0,0,1,1768,1669.746Z" transform="translate(-1765.398 -1668.428)" fill="#f2f2f2"/>
            </g>
          </g>
        </g>
        <g id="Group_56930" data-name="Group 56930" transform="translate(207.742 15.121)">
          <g id="Group_56927" data-name="Group 56927" transform="translate(0 0.444)">
            <g id="Group_56926" data-name="Group 56926">
              <g id="Group_56925" data-name="Group 56925">
                <g id="Group_56924" data-name="Group 56924">
                  <g id="Group_56923" data-name="Group 56923">
                    <path id="Path_9815" data-name="Path 9815" d="M3011.271,1643.845l.167,0a4.89,4.89,0,0,1,1.021.11,3.485,3.485,0,0,1,2.889,2.729,4.872,4.872,0,0,1,.168,1.013l.005.167-.167,0a4.851,4.851,0,0,1-1.021-.11,3.486,3.486,0,0,1-2.89-2.729,4.839,4.839,0,0,1-.168-1.013Zm3.9,3.683a3.408,3.408,0,1,0-2.481-.928A4.07,4.07,0,0,0,3015.171,1647.528Z" transform="translate(-3011.271 -1643.841)" fill="#e4e4e4"/>
                  </g>
                </g>
              </g>
            </g>
          </g>
          <g id="Group_56929" data-name="Group 56929" transform="translate(1.486)">
            <g id="Group_56928" data-name="Group 56928">
              <path id="Path_9816" data-name="Path 9816" d="M3023.122,1642.759a1.786,1.786,0,1,1-2.848-1.6A4.832,4.832,0,0,1,3023.122,1642.759Z" transform="translate(-3020.242 -1641.162)" fill="#f2f2f2"/>
            </g>
          </g>
        </g>
      </g>
    </g>
    <g id="Group_56935" data-name="Group 56935" transform="translate(1470.22 427.297)">
      <g id="Group_56933" data-name="Group 56933" transform="translate(74.197)">
        <path id="Path_9817" data-name="Path 9817" d="M2344.569,1140.9H2267.54l1.4-5.074,2.737-9.908,1.657-6,2.444-8.845,4.711-17.05,2.444-8.845L2300.112,1023H2312l6.3,22.789,10.883,39.392,2.444,8.845,4.711,17.05,2.443,8.845,4.395,15.907Z" transform="translate(-2251.779 -1023)" fill="#9a44c4"/>
        <path id="Path_9818" data-name="Path 9818" d="M2344.569,1255.658H2267.54l1.4-5.074,2.737-9.908c53.677-3.171,46.614-80.131,46.614-80.131l24.876,90.039Z" transform="translate(-2251.779 -1137.756)" fill="#511171"/>
        <rect id="Rectangle_3458" data-name="Rectangle 3458" width="108.55" height="10.321" transform="translate(0 117.902)" fill="#6f109e"/>
        <path id="Path_9819" data-name="Path 9819" d="M2344.569,1709.065H2267.54l1.4-5.074h74.227Z" transform="translate(-2251.779 -1591.163)" fill="#310447"/>
        <path id="Path_9820" data-name="Path 9820" d="M2449.212,1451.686s-1.614,34.043-40.727,41.83l52.276-.028Z" transform="translate(-2369.372 -1380.661)" fill="#3c0358"/>
        <path id="Path_9821" data-name="Path 9821" d="M2396.833,1407.146H2345.7l2.444-8.845h46.241Z" transform="translate(-2316.993 -1336.121)" fill="#fff"/>
        <path id="Path_9822" data-name="Path 9822" d="M2367.959,1563.441h-65.437l2.444-8.845h60.55Z" transform="translate(-2280.965 -1466.521)" fill="#fff"/>
        <path id="Path_9823" data-name="Path 9823" d="M2335.222,1734.616s-14.389,10.863-67.682,10.321h92.789v-10.321Z" transform="translate(-2251.779 -1616.714)" fill="#511171"/>
      </g>
      <g id="Group_56934" data-name="Group 56934" transform="translate(0 128.088)">
        <rect id="Rectangle_3459" data-name="Rectangle 3459" width="145.45" height="3.54" rx="1.77" transform="translate(54.99)" fill="#310447"/>
        <rect id="Rectangle_3460" data-name="Rectangle 3460" width="26.478" height="3.54" rx="1.77" transform="translate(34.693)" fill="#310447"/>
        <rect id="Rectangle_3461" data-name="Rectangle 3461" width="27.642" height="3.54" rx="1.77" fill="#310447"/>
        <rect id="Rectangle_3462" data-name="Rectangle 3462" width="23.315" height="3.54" rx="1.77" transform="translate(207.773)" fill="#310447"/>
        <rect id="Rectangle_3463" data-name="Rectangle 3463" width="18.569" height="3.54" rx="1.77" transform="translate(238.436)" fill="#310447"/>
      </g>
    </g>
  </g>
</svg>
