<svg xmlns="http://www.w3.org/2000/svg" width="12.71" height="12.703" viewBox="0 0 12.71 12.703">
  <g id="Group_57059" data-name="Group 57059" transform="translate(0.001 0)">
    <path id="Shape" d="M7.735.251,9.366,3.713a.431.431,0,0,0,.323.246l3.647.555a.456.456,0,0,1,.238.767l-2.639,2.7a.463.463,0,0,0-.123.4l.623,3.806a.434.434,0,0,1-.623.474l-3.262-1.8a.412.412,0,0,0-.4,0l-3.262,1.8a.434.434,0,0,1-.623-.474l.623-3.806a.463.463,0,0,0-.123-.4l-2.639-2.7a.456.456,0,0,1,.238-.767l3.647-.555a.431.431,0,0,0,.323-.246L6.965.251a.421.421,0,0,1,.77,0Z" transform="translate(-0.995)" fill="#f6ab27" fill-rule="evenodd"/>
    <path id="Shape-2" data-name="Shape" d="M8.967,2.872A13.28,13.28,0,0,0,6.079,4.958,12.559,12.559,0,0,0,3.761,7.975L1.124,5.282a.455.455,0,0,1,.239-.767l3.646-.556a.438.438,0,0,0,.324-.245L6.962.25a.423.423,0,0,1,.771,0Z" transform="translate(-0.993)" fill="#f4cd1e" fill-rule="evenodd"/>
  </g>
</svg>
